<svg xmlns="http://www.w3.org/2000/svg" xmlns:xlink="http://www.w3.org/1999/xlink" viewBox="0 0 247 235.42"><defs><style>.cls-1{fill:url(#linear-gradient);}</style><linearGradient id="linear-gradient" x1="-0.71" y1="105.37" x2="244.57" y2="134.75" gradientUnits="userSpaceOnUse"><stop offset="0" stop-color="#ff2ae2"/><stop offset="0.35" stop-color="#e53feb"/><stop offset="0.97" stop-color="#af6aff"/></linearGradient></defs><g id="Layer_2" data-name="Layer 2"><g id="Layer_1-2" data-name="Layer 1"><path class="cls-1" d="M123.5,0A123.51,123.51,0,0,0,70.39,235c6.87-16.8,27.82-29,52.61-29,25,0,46.06,12.42,52.76,29.42A123.51,123.51,0,0,0,123.5,0Zm56.62,150.13a21.2,21.2,0,0,1,0,30h0a21.2,21.2,0,0,1-30,0l-26.87-26.86L96.66,179.86a21.2,21.2,0,0,1-30,0h0a21.2,21.2,0,0,1,0-30l26.61-26.61L66.47,96.44a21.2,21.2,0,0,1,0-30h0a21.2,21.2,0,0,1,30,0l26.82,26.83,27.08-27.08a21.2,21.2,0,1,1,30,30l-27.08,27.08Z"/></g></g></svg>