<svg width="1194" height="429" viewBox="0 0 1194 429" fill="none" xmlns="http://www.w3.org/2000/svg">
<rect width="1194" height="429" fill="white"/>
<rect width="1194" height="429" rx="10" fill="#F694FF"/>
<line x1="179" y1="280.5" x2="597" y2="280.5" stroke="black" stroke-width="5"/>
<path d="M183.56 328C183.427 328 183.307 327.96 183.2 327.88C183.12 327.773 183.08 327.653 183.08 327.52V300.48C183.08 300.347 183.12 300.24 183.2 300.16C183.307 300.053 183.427 300 183.56 300H184.76C185.027 300 185.213 300.107 185.32 300.32L199.68 323.6C199.707 323.68 199.747 323.72 199.8 323.72C199.853 323.693 199.88 323.64 199.88 323.56V300.48C199.88 300.347 199.92 300.24 200 300.16C200.107 300.053 200.227 300 200.36 300H201.52C201.653 300 201.76 300.053 201.84 300.16C201.947 300.24 202 300.347 202 300.48V327.52C202 327.653 201.947 327.773 201.84 327.88C201.76 327.96 201.653 328 201.52 328H200.32C200.053 328 199.867 327.893 199.76 327.68L185.4 304.36C185.373 304.28 185.333 304.253 185.28 304.28C185.227 304.28 185.2 304.32 185.2 304.4V327.52C185.2 327.653 185.147 327.773 185.04 327.88C184.96 327.96 184.853 328 184.72 328H183.56ZM216.87 328.32C214.977 328.32 213.364 327.827 212.03 326.84C210.724 325.853 209.83 324.533 209.35 322.88C209.03 321.813 208.87 320.147 208.87 317.88C208.87 315.747 209.017 314.093 209.31 312.92C209.79 311.267 210.697 309.96 212.03 309C213.364 308.013 214.977 307.52 216.87 307.52C218.737 307.52 220.337 308.013 221.67 309C223.03 309.987 223.937 311.293 224.39 312.92C224.684 313.987 224.83 315.64 224.83 317.88C224.83 320.147 224.684 321.813 224.39 322.88C223.937 324.533 223.03 325.853 221.67 326.84C220.337 327.827 218.737 328.32 216.87 328.32ZM216.87 326.44C218.284 326.44 219.484 326.053 220.47 325.28C221.484 324.507 222.137 323.467 222.43 322.16C222.59 321.413 222.67 320 222.67 317.92C222.67 315.787 222.59 314.373 222.43 313.68C222.137 312.373 221.484 311.333 220.47 310.56C219.484 309.787 218.27 309.4 216.83 309.4C215.39 309.4 214.177 309.787 213.19 310.56C212.204 311.333 211.564 312.373 211.27 313.68C211.11 314.373 211.03 315.787 211.03 317.92C211.03 320.053 211.11 321.467 211.27 322.16C211.564 323.467 212.204 324.507 213.19 325.28C214.177 326.053 215.404 326.44 216.87 326.44ZM234.49 328C234.196 328 234.01 327.867 233.93 327.6L228.37 308.4L228.33 308.24C228.33 307.973 228.476 307.84 228.77 307.84H229.93C230.223 307.84 230.41 307.973 230.49 308.24L235.05 324.88C235.076 324.933 235.103 324.96 235.13 324.96C235.183 324.96 235.223 324.933 235.25 324.88L239.85 308.24C239.93 307.973 240.116 307.84 240.41 307.84H241.53C241.823 307.84 242.01 307.973 242.09 308.24L246.73 324.84C246.756 324.893 246.796 324.92 246.85 324.92C246.903 324.92 246.943 324.893 246.97 324.84L251.57 308.24C251.65 307.973 251.836 307.84 252.13 307.84L253.29 307.88C253.45 307.88 253.556 307.933 253.61 308.04C253.69 308.12 253.716 308.24 253.69 308.4L248.05 327.6C247.97 327.867 247.796 328 247.53 328H246.29C245.996 328 245.81 327.867 245.73 327.6L241.09 311.68C241.063 311.627 241.023 311.6 240.97 311.6C240.916 311.6 240.876 311.627 240.85 311.68L236.29 327.6C236.21 327.867 236.023 328 235.73 328H234.49ZM273.301 307.52C275.647 307.52 277.434 308.133 278.661 309.36C279.887 310.56 280.501 312.187 280.501 314.24V327.52C280.501 327.653 280.447 327.773 280.341 327.88C280.261 327.96 280.154 328 280.021 328H278.861C278.727 328 278.607 327.96 278.501 327.88C278.421 327.773 278.381 327.653 278.381 327.52V325.8C278.381 325.747 278.354 325.707 278.301 325.68C278.274 325.653 278.234 325.667 278.181 325.72C277.487 326.573 276.567 327.227 275.421 327.68C274.274 328.107 273.047 328.32 271.741 328.32C269.874 328.32 268.314 327.867 267.061 326.96C265.807 326.027 265.181 324.587 265.181 322.64C265.181 320.667 265.914 319.107 267.381 317.96C268.847 316.813 270.861 316.24 273.421 316.24H278.221C278.327 316.24 278.381 316.187 278.381 316.08V314.28C278.381 312.76 277.967 311.573 277.141 310.72C276.314 309.84 275.021 309.4 273.261 309.4C271.901 309.4 270.781 309.68 269.901 310.24C269.021 310.773 268.474 311.507 268.261 312.44C268.181 312.76 267.994 312.893 267.701 312.84L266.461 312.68C266.114 312.627 265.967 312.48 266.021 312.24C266.287 310.827 267.074 309.693 268.381 308.84C269.687 307.96 271.327 307.52 273.301 307.52ZM272.141 326.48C273.821 326.48 275.274 326.067 276.501 325.24C277.754 324.413 278.381 323.267 278.381 321.8V318.16C278.381 318.053 278.327 318 278.221 318H273.661C271.741 318 270.194 318.4 269.021 319.2C267.874 320 267.301 321.107 267.301 322.52C267.301 323.827 267.754 324.813 268.661 325.48C269.567 326.147 270.727 326.48 272.141 326.48ZM291.779 328C291.512 328 291.339 327.867 291.259 327.6L284.699 308.4C284.672 308.347 284.659 308.28 284.659 308.2C284.659 307.96 284.792 307.84 285.059 307.84H286.419C286.685 307.84 286.859 307.973 286.939 308.24L292.379 324.76C292.405 324.813 292.445 324.84 292.499 324.84C292.552 324.84 292.592 324.813 292.619 324.76L298.059 308.24C298.139 307.973 298.312 307.84 298.579 307.84L299.939 307.88C300.099 307.88 300.205 307.933 300.259 308.04C300.339 308.12 300.352 308.253 300.299 308.44L293.739 327.6C293.659 327.867 293.485 328 293.219 328H291.779ZM311.66 307.52C314.007 307.52 315.793 308.133 317.02 309.36C318.247 310.56 318.86 312.187 318.86 314.24V327.52C318.86 327.653 318.807 327.773 318.7 327.88C318.62 327.96 318.513 328 318.38 328H317.22C317.087 328 316.967 327.96 316.86 327.88C316.78 327.773 316.74 327.653 316.74 327.52V325.8C316.74 325.747 316.713 325.707 316.66 325.68C316.633 325.653 316.593 325.667 316.54 325.72C315.847 326.573 314.927 327.227 313.78 327.68C312.633 328.107 311.407 328.32 310.1 328.32C308.233 328.32 306.673 327.867 305.42 326.96C304.167 326.027 303.54 324.587 303.54 322.64C303.54 320.667 304.273 319.107 305.74 317.96C307.207 316.813 309.22 316.24 311.78 316.24H316.58C316.687 316.24 316.74 316.187 316.74 316.08V314.28C316.74 312.76 316.327 311.573 315.5 310.72C314.673 309.84 313.38 309.4 311.62 309.4C310.26 309.4 309.14 309.68 308.26 310.24C307.38 310.773 306.833 311.507 306.62 312.44C306.54 312.76 306.353 312.893 306.06 312.84L304.82 312.68C304.473 312.627 304.327 312.48 304.38 312.24C304.647 310.827 305.433 309.693 306.74 308.84C308.047 307.96 309.687 307.52 311.66 307.52ZM310.5 326.48C312.18 326.48 313.633 326.067 314.86 325.24C316.113 324.413 316.74 323.267 316.74 321.8V318.16C316.74 318.053 316.687 318 316.58 318H312.02C310.1 318 308.553 318.4 307.38 319.2C306.233 320 305.66 321.107 305.66 322.52C305.66 323.827 306.113 324.813 307.02 325.48C307.927 326.147 309.087 326.48 310.5 326.48ZM326.574 303.8C326.041 303.8 325.601 303.64 325.254 303.32C324.908 302.973 324.734 302.547 324.734 302.04C324.734 301.533 324.908 301.12 325.254 300.8C325.601 300.48 326.041 300.32 326.574 300.32C327.108 300.32 327.548 300.48 327.894 300.8C328.241 301.12 328.414 301.533 328.414 302.04C328.414 302.547 328.241 302.973 327.894 303.32C327.548 303.64 327.108 303.8 326.574 303.8ZM326.014 328C325.881 328 325.761 327.96 325.654 327.88C325.574 327.773 325.534 327.653 325.534 327.52V308.32C325.534 308.187 325.574 308.08 325.654 308C325.761 307.893 325.881 307.84 326.014 307.84H327.174C327.308 307.84 327.414 307.893 327.494 308C327.601 308.08 327.654 308.187 327.654 308.32V327.52C327.654 327.653 327.601 327.773 327.494 327.88C327.414 327.96 327.308 328 327.174 328H326.014ZM335.382 328C335.249 328 335.129 327.96 335.022 327.88C334.942 327.773 334.902 327.653 334.902 327.52V300.48C334.902 300.347 334.942 300.24 335.022 300.16C335.129 300.053 335.249 300 335.382 300H336.542C336.675 300 336.782 300.053 336.862 300.16C336.969 300.24 337.022 300.347 337.022 300.48V327.52C337.022 327.653 336.969 327.773 336.862 327.88C336.782 327.96 336.675 328 336.542 328H335.382ZM350.644 307.52C352.991 307.52 354.778 308.133 356.004 309.36C357.231 310.56 357.844 312.187 357.844 314.24V327.52C357.844 327.653 357.791 327.773 357.684 327.88C357.604 327.96 357.498 328 357.364 328H356.204C356.071 328 355.951 327.96 355.844 327.88C355.764 327.773 355.724 327.653 355.724 327.52V325.8C355.724 325.747 355.698 325.707 355.644 325.68C355.618 325.653 355.578 325.667 355.524 325.72C354.831 326.573 353.911 327.227 352.764 327.68C351.618 328.107 350.391 328.32 349.084 328.32C347.218 328.32 345.658 327.867 344.404 326.96C343.151 326.027 342.524 324.587 342.524 322.64C342.524 320.667 343.258 319.107 344.724 317.96C346.191 316.813 348.204 316.24 350.764 316.24H355.564C355.671 316.24 355.724 316.187 355.724 316.08V314.28C355.724 312.76 355.311 311.573 354.484 310.72C353.658 309.84 352.364 309.4 350.604 309.4C349.244 309.4 348.124 309.68 347.244 310.24C346.364 310.773 345.818 311.507 345.604 312.44C345.524 312.76 345.338 312.893 345.044 312.84L343.804 312.68C343.458 312.627 343.311 312.48 343.364 312.24C343.631 310.827 344.418 309.693 345.724 308.84C347.031 307.96 348.671 307.52 350.644 307.52ZM349.484 326.48C351.164 326.48 352.618 326.067 353.844 325.24C355.098 324.413 355.724 323.267 355.724 321.8V318.16C355.724 318.053 355.671 318 355.564 318H351.004C349.084 318 347.538 318.4 346.364 319.2C345.218 320 344.644 321.107 344.644 322.52C344.644 323.827 345.098 324.813 346.004 325.48C346.911 326.147 348.071 326.48 349.484 326.48ZM379.119 312.92C379.279 313.533 379.385 314.227 379.439 315C379.492 315.773 379.519 316.76 379.519 317.96C379.519 320.2 379.372 321.88 379.079 323C378.625 324.627 377.772 325.92 376.519 326.88C375.265 327.84 373.732 328.32 371.919 328.32C370.745 328.32 369.692 328.08 368.759 327.6C367.852 327.12 367.105 326.44 366.519 325.56C366.465 325.507 366.412 325.493 366.359 325.52C366.332 325.52 366.319 325.56 366.319 325.64V327.52C366.319 327.653 366.265 327.773 366.159 327.88C366.079 327.96 365.972 328 365.839 328H364.679C364.545 328 364.425 327.96 364.319 327.88C364.239 327.773 364.199 327.653 364.199 327.52V300.48C364.199 300.347 364.239 300.24 364.319 300.16C364.425 300.053 364.545 300 364.679 300H365.839C365.972 300 366.079 300.053 366.159 300.16C366.265 300.24 366.319 300.347 366.319 300.48V310.16C366.319 310.213 366.345 310.253 366.399 310.28C366.452 310.307 366.492 310.293 366.519 310.24C367.105 309.36 367.852 308.693 368.759 308.24C369.692 307.76 370.745 307.52 371.919 307.52C373.759 307.52 375.305 308.013 376.559 309C377.839 309.96 378.692 311.267 379.119 312.92ZM376.879 322.68C377.065 322.093 377.199 321.493 377.279 320.88C377.359 320.24 377.399 319.253 377.399 317.92C377.399 316.507 377.345 315.48 377.239 314.84C377.159 314.2 376.999 313.6 376.759 313.04C376.439 311.973 375.825 311.107 374.919 310.44C374.012 309.747 372.932 309.4 371.679 309.4C370.452 309.4 369.412 309.747 368.559 310.44C367.705 311.107 367.145 311.987 366.879 313.08C366.692 313.613 366.559 314.213 366.479 314.88C366.399 315.52 366.359 316.547 366.359 317.96C366.359 319.32 366.385 320.32 366.439 320.96C366.519 321.6 366.652 322.173 366.839 322.68C367.132 323.8 367.692 324.707 368.519 325.4C369.372 326.093 370.425 326.44 371.679 326.44C372.985 326.44 374.105 326.093 375.039 325.4C375.972 324.707 376.585 323.8 376.879 322.68ZM386.202 328C386.069 328 385.949 327.96 385.842 327.88C385.762 327.773 385.722 327.653 385.722 327.52V300.48C385.722 300.347 385.762 300.24 385.842 300.16C385.949 300.053 386.069 300 386.202 300H387.362C387.496 300 387.602 300.053 387.682 300.16C387.789 300.24 387.842 300.347 387.842 300.48V327.52C387.842 327.653 387.789 327.773 387.682 327.88C387.602 327.96 387.496 328 387.362 328H386.202ZM402.185 326.48C403.491 326.453 404.611 326.16 405.545 325.6C406.478 325.013 407.171 324.213 407.625 323.2C407.785 322.933 407.998 322.853 408.265 322.96L408.985 323.24C409.305 323.373 409.398 323.587 409.265 323.88C408.678 325.24 407.758 326.32 406.505 327.12C405.251 327.92 403.758 328.32 402.025 328.32C400.185 328.32 398.625 327.867 397.345 326.96C396.091 326.053 395.211 324.813 394.705 323.24C394.331 322.013 394.145 320.227 394.145 317.88C394.145 316.573 394.158 315.587 394.185 314.92C394.238 314.253 394.331 313.64 394.465 313.08C394.891 311.4 395.758 310.053 397.065 309.04C398.398 308.027 400.025 307.52 401.945 307.52C404.078 307.52 405.798 308.08 407.105 309.2C408.411 310.32 409.238 311.853 409.585 313.8C409.691 314.333 409.758 314.893 409.785 315.48C409.838 316.04 409.865 316.907 409.865 318.08C409.865 318.427 409.705 318.6 409.385 318.6H396.385C396.278 318.6 396.225 318.653 396.225 318.76C396.225 320.44 396.291 321.587 396.425 322.2C396.718 323.48 397.371 324.52 398.385 325.32C399.398 326.093 400.665 326.48 402.185 326.48ZM396.505 313.56C396.371 314.067 396.278 315.12 396.225 316.72C396.225 316.827 396.278 316.88 396.385 316.88H407.545C407.651 316.88 407.705 316.827 407.705 316.72C407.705 315.36 407.638 314.347 407.505 313.68C407.211 312.4 406.571 311.373 405.585 310.6C404.598 309.8 403.385 309.4 401.945 309.4C400.505 309.4 399.305 309.787 398.345 310.56C397.385 311.307 396.771 312.307 396.505 313.56ZM431.363 328.32C429.469 328.32 427.856 327.827 426.523 326.84C425.216 325.853 424.323 324.533 423.843 322.88C423.523 321.813 423.363 320.147 423.363 317.88C423.363 315.747 423.509 314.093 423.803 312.92C424.283 311.267 425.189 309.96 426.523 309C427.856 308.013 429.469 307.52 431.363 307.52C433.229 307.52 434.829 308.013 436.163 309C437.523 309.987 438.429 311.293 438.883 312.92C439.176 313.987 439.323 315.64 439.323 317.88C439.323 320.147 439.176 321.813 438.883 322.88C438.429 324.533 437.523 325.853 436.163 326.84C434.829 327.827 433.229 328.32 431.363 328.32ZM431.363 326.44C432.776 326.44 433.976 326.053 434.963 325.28C435.976 324.507 436.629 323.467 436.923 322.16C437.083 321.413 437.163 320 437.163 317.92C437.163 315.787 437.083 314.373 436.923 313.68C436.629 312.373 435.976 311.333 434.963 310.56C433.976 309.787 432.763 309.4 431.323 309.4C429.883 309.4 428.669 309.787 427.683 310.56C426.696 311.333 426.056 312.373 425.763 313.68C425.603 314.373 425.523 315.787 425.523 317.92C425.523 320.053 425.603 321.467 425.763 322.16C426.056 323.467 426.696 324.507 427.683 325.28C428.669 326.053 429.896 326.44 431.363 326.44ZM453.565 307.56C455.618 307.56 457.272 308.187 458.525 309.44C459.778 310.693 460.405 312.347 460.405 314.4V327.52C460.405 327.653 460.352 327.773 460.245 327.88C460.165 327.96 460.058 328 459.925 328H458.765C458.632 328 458.512 327.96 458.405 327.88C458.325 327.773 458.285 327.653 458.285 327.52V314.8C458.285 313.227 457.805 311.947 456.845 310.96C455.885 309.947 454.645 309.44 453.125 309.44C451.498 309.44 450.192 309.933 449.205 310.92C448.218 311.88 447.725 313.147 447.725 314.72V327.52C447.725 327.653 447.672 327.773 447.565 327.88C447.485 327.96 447.378 328 447.245 328H446.085C445.952 328 445.832 327.96 445.725 327.88C445.645 327.773 445.605 327.653 445.605 327.52V308.32C445.605 308.187 445.645 308.08 445.725 308C445.832 307.893 445.952 307.84 446.085 307.84H447.245C447.378 307.84 447.485 307.893 447.565 308C447.672 308.08 447.725 308.187 447.725 308.32V310.2C447.725 310.28 447.738 310.333 447.765 310.36C447.818 310.36 447.858 310.333 447.885 310.28C448.472 309.4 449.245 308.733 450.205 308.28C451.192 307.8 452.312 307.56 453.565 307.56ZM188.44 362C188.147 362 187.96 361.867 187.88 361.6L180.12 334.52L180.08 334.36C180.08 334.12 180.227 334 180.52 334H181.76C182.053 334 182.24 334.133 182.32 334.4L188.92 357.64C188.947 357.693 188.973 357.72 189 357.72C189.053 357.72 189.093 357.693 189.12 357.64L195.2 334.4C195.28 334.133 195.467 334 195.76 334H197.04C197.333 334 197.52 334.133 197.6 334.4L203.92 357.64C203.947 357.693 203.973 357.72 204 357.72C204.053 357.72 204.093 357.693 204.12 357.64L210.76 334.4C210.84 334.133 211.027 334 211.32 334H212.48C212.827 334 212.96 334.173 212.88 334.52L205.12 361.6C205.04 361.867 204.853 362 204.56 362H203.32C203.027 362 202.84 361.867 202.76 361.6L196.52 337.92C196.493 337.867 196.467 337.84 196.44 337.84C196.413 337.84 196.387 337.867 196.36 337.92L190.16 361.6C190.08 361.867 189.893 362 189.6 362H188.44ZM218.84 337.8C218.307 337.8 217.867 337.64 217.52 337.32C217.173 336.973 217 336.547 217 336.04C217 335.533 217.173 335.12 217.52 334.8C217.867 334.48 218.307 334.32 218.84 334.32C219.373 334.32 219.813 334.48 220.16 334.8C220.507 335.12 220.68 335.533 220.68 336.04C220.68 336.547 220.507 336.973 220.16 337.32C219.813 337.64 219.373 337.8 218.84 337.8ZM218.28 362C218.147 362 218.027 361.96 217.92 361.88C217.84 361.773 217.8 361.653 217.8 361.52V342.32C217.8 342.187 217.84 342.08 217.92 342C218.027 341.893 218.147 341.84 218.28 341.84H219.44C219.573 341.84 219.68 341.893 219.76 342C219.867 342.08 219.92 342.187 219.92 342.32V361.52C219.92 361.653 219.867 361.773 219.76 361.88C219.68 361.96 219.573 362 219.44 362H218.28ZM235.128 341.56C237.181 341.56 238.834 342.187 240.088 343.44C241.341 344.693 241.968 346.347 241.968 348.4V361.52C241.968 361.653 241.914 361.773 241.808 361.88C241.728 361.96 241.621 362 241.488 362H240.328C240.194 362 240.074 361.96 239.968 361.88C239.888 361.773 239.848 361.653 239.848 361.52V348.8C239.848 347.227 239.368 345.947 238.408 344.96C237.448 343.947 236.208 343.44 234.688 343.44C233.061 343.44 231.754 343.933 230.768 344.92C229.781 345.88 229.288 347.147 229.288 348.72V361.52C229.288 361.653 229.234 361.773 229.128 361.88C229.048 361.96 228.941 362 228.808 362H227.648C227.514 362 227.394 361.96 227.288 361.88C227.208 361.773 227.168 361.653 227.168 361.52V342.32C227.168 342.187 227.208 342.08 227.288 342C227.394 341.893 227.514 341.84 227.648 341.84H228.808C228.941 341.84 229.048 341.893 229.128 342C229.234 342.08 229.288 342.187 229.288 342.32V344.2C229.288 344.28 229.301 344.333 229.328 344.36C229.381 344.36 229.421 344.333 229.448 344.28C230.034 343.4 230.808 342.733 231.768 342.28C232.754 341.8 233.874 341.56 235.128 341.56ZM261.092 334.48C261.092 334.347 261.132 334.24 261.212 334.16C261.319 334.053 261.439 334 261.572 334H262.732C262.865 334 262.972 334.053 263.052 334.16C263.159 334.24 263.212 334.347 263.212 334.48V361.52C263.212 361.653 263.159 361.773 263.052 361.88C262.972 361.96 262.865 362 262.732 362H261.572C261.439 362 261.319 361.96 261.212 361.88C261.132 361.773 261.092 361.653 261.092 361.52V359.64C261.092 359.56 261.065 359.52 261.012 359.52C260.985 359.493 260.945 359.507 260.892 359.56C260.305 360.44 259.545 361.12 258.612 361.6C257.705 362.08 256.665 362.32 255.492 362.32C253.679 362.32 252.145 361.84 250.892 360.88C249.639 359.92 248.785 358.627 248.332 357C248.039 355.88 247.892 354.2 247.892 351.96C247.892 350.76 247.919 349.773 247.972 349C248.025 348.227 248.132 347.533 248.292 346.92C248.719 345.267 249.559 343.96 250.812 343C252.092 342.013 253.652 341.52 255.492 341.52C256.665 341.52 257.705 341.76 258.612 342.24C259.545 342.693 260.305 343.36 260.892 344.24C260.919 344.293 260.959 344.307 261.012 344.28C261.065 344.253 261.092 344.213 261.092 344.16V334.48ZM260.572 356.68C260.759 356.173 260.879 355.6 260.932 354.96C261.012 354.32 261.052 353.32 261.052 351.96C261.052 350.547 261.012 349.52 260.932 348.88C260.852 348.213 260.719 347.613 260.532 347.08C260.265 345.987 259.705 345.107 258.852 344.44C257.999 343.747 256.959 343.4 255.732 343.4C254.479 343.4 253.399 343.747 252.492 344.44C251.585 345.107 250.972 345.973 250.652 347.04C250.412 347.6 250.239 348.2 250.132 348.84C250.052 349.48 250.012 350.507 250.012 351.92C250.012 353.253 250.052 354.24 250.132 354.88C250.212 355.493 250.345 356.093 250.532 356.68C250.825 357.8 251.439 358.707 252.372 359.4C253.305 360.093 254.425 360.44 255.732 360.44C256.985 360.44 258.025 360.093 258.852 359.4C259.705 358.707 260.279 357.8 260.572 356.68ZM277.495 362.32C275.602 362.32 273.989 361.827 272.655 360.84C271.349 359.853 270.455 358.533 269.975 356.88C269.655 355.813 269.495 354.147 269.495 351.88C269.495 349.747 269.642 348.093 269.935 346.92C270.415 345.267 271.322 343.96 272.655 343C273.989 342.013 275.602 341.52 277.495 341.52C279.362 341.52 280.962 342.013 282.295 343C283.655 343.987 284.562 345.293 285.015 346.92C285.309 347.987 285.455 349.64 285.455 351.88C285.455 354.147 285.309 355.813 285.015 356.88C284.562 358.533 283.655 359.853 282.295 360.84C280.962 361.827 279.362 362.32 277.495 362.32ZM277.495 360.44C278.909 360.44 280.109 360.053 281.095 359.28C282.109 358.507 282.762 357.467 283.055 356.16C283.215 355.413 283.295 354 283.295 351.92C283.295 349.787 283.215 348.373 283.055 347.68C282.762 346.373 282.109 345.333 281.095 344.56C280.109 343.787 278.895 343.4 277.455 343.4C276.015 343.4 274.802 343.787 273.815 344.56C272.829 345.333 272.189 346.373 271.895 347.68C271.735 348.373 271.655 349.787 271.655 351.92C271.655 354.053 271.735 355.467 271.895 356.16C272.189 357.467 272.829 358.507 273.815 359.28C274.802 360.053 276.029 360.44 277.495 360.44ZM295.115 362C294.821 362 294.635 361.867 294.555 361.6L288.995 342.4L288.955 342.24C288.955 341.973 289.101 341.84 289.395 341.84H290.555C290.848 341.84 291.035 341.973 291.115 342.24L295.675 358.88C295.701 358.933 295.728 358.96 295.755 358.96C295.808 358.96 295.848 358.933 295.875 358.88L300.475 342.24C300.555 341.973 300.741 341.84 301.035 341.84H302.155C302.448 341.84 302.635 341.973 302.715 342.24L307.355 358.84C307.381 358.893 307.421 358.92 307.475 358.92C307.528 358.92 307.568 358.893 307.595 358.84L312.195 342.24C312.275 341.973 312.461 341.84 312.755 341.84L313.915 341.88C314.075 341.88 314.181 341.933 314.235 342.04C314.315 342.12 314.341 342.24 314.315 342.4L308.675 361.6C308.595 361.867 308.421 362 308.155 362H306.915C306.621 362 306.435 361.867 306.355 361.6L301.715 345.68C301.688 345.627 301.648 345.6 301.595 345.6C301.541 345.6 301.501 345.627 301.475 345.68L296.915 361.6C296.835 361.867 296.648 362 296.355 362H295.115ZM324.346 362.2C322.906 362.2 321.626 361.973 320.506 361.52C319.413 361.04 318.559 360.4 317.946 359.6C317.333 358.8 317.026 357.92 317.026 356.96V356.52C317.026 356.387 317.066 356.28 317.146 356.2C317.253 356.093 317.373 356.04 317.506 356.04H318.626C318.759 356.04 318.866 356.08 318.946 356.16C319.053 356.24 319.106 356.333 319.106 356.44V356.88C319.106 357.84 319.586 358.68 320.546 359.4C321.533 360.12 322.786 360.48 324.306 360.48C325.799 360.48 327.013 360.12 327.946 359.4C328.906 358.68 329.386 357.787 329.386 356.72C329.386 355.973 329.146 355.36 328.666 354.88C328.186 354.4 327.613 354.04 326.946 353.8C326.279 353.533 325.293 353.2 323.986 352.8C322.493 352.347 321.293 351.92 320.386 351.52C319.479 351.12 318.706 350.56 318.066 349.84C317.453 349.093 317.146 348.16 317.146 347.04C317.146 345.413 317.786 344.12 319.066 343.16C320.373 342.173 322.079 341.68 324.186 341.68C325.599 341.68 326.839 341.92 327.906 342.4C328.999 342.853 329.839 343.48 330.426 344.28C331.039 345.08 331.346 345.987 331.346 347V347.04C331.346 347.173 331.293 347.293 331.186 347.4C331.106 347.48 330.999 347.52 330.866 347.52H329.786C329.653 347.52 329.533 347.493 329.426 347.44C329.346 347.387 329.306 347.32 329.306 347.24V347C329.306 345.987 328.826 345.147 327.866 344.48C326.933 343.787 325.693 343.44 324.146 343.44C322.653 343.44 321.453 343.76 320.546 344.4C319.639 345.013 319.186 345.853 319.186 346.92C319.186 347.933 319.599 348.693 320.426 349.2C321.279 349.707 322.599 350.227 324.386 350.76C325.959 351.213 327.199 351.64 328.106 352.04C329.039 352.413 329.839 352.973 330.506 353.72C331.173 354.467 331.506 355.427 331.506 356.6C331.506 358.28 330.853 359.64 329.546 360.68C328.239 361.693 326.506 362.2 324.346 362.2ZM346.088 362.32C344.248 362.32 342.621 361.947 341.208 361.2C339.821 360.427 338.741 359.36 337.968 358C337.221 356.613 336.848 355.027 336.848 353.24V342.76C336.848 340.973 337.221 339.4 337.968 338.04C338.741 336.653 339.821 335.587 341.208 334.84C342.621 334.067 344.248 333.68 346.088 333.68C347.928 333.68 349.554 334.067 350.968 334.84C352.381 335.587 353.474 336.653 354.247 338.04C355.021 339.4 355.408 340.973 355.408 342.76V353.24C355.408 355.027 355.021 356.613 354.247 358C353.474 359.36 352.381 360.427 350.968 361.2C349.554 361.947 347.928 362.32 346.088 362.32ZM346.088 360.48C348.248 360.48 349.981 359.827 351.288 358.52C352.621 357.213 353.288 355.48 353.288 353.32V342.72C353.288 340.587 352.621 338.867 351.288 337.56C349.981 336.227 348.248 335.56 346.088 335.56C343.954 335.56 342.234 336.227 340.928 337.56C339.621 338.867 338.967 340.587 338.967 342.72V353.32C338.967 355.48 339.621 357.213 340.928 358.52C342.234 359.827 343.954 360.48 346.088 360.48ZM370.45 362.32C367.57 362.32 365.277 361.667 363.57 360.36C361.89 359.027 361.05 357.253 361.05 355.04V353.8C361.05 353.667 361.09 353.56 361.17 353.48C361.277 353.373 361.397 353.32 361.53 353.32H362.61C362.744 353.32 362.85 353.373 362.93 353.48C363.037 353.56 363.09 353.667 363.09 353.8V354.92C363.09 356.573 363.77 357.907 365.13 358.92C366.49 359.933 368.33 360.44 370.65 360.44C372.864 360.44 374.544 359.987 375.69 359.08C376.864 358.147 377.45 356.867 377.45 355.24C377.45 354.253 377.197 353.4 376.69 352.68C376.184 351.933 375.384 351.24 374.29 350.6C373.197 349.96 371.677 349.227 369.73 348.4C367.65 347.52 366.077 346.787 365.01 346.2C363.944 345.613 363.09 344.88 362.45 344C361.81 343.093 361.49 341.933 361.49 340.52C361.49 338.333 362.237 336.653 363.73 335.48C365.25 334.28 367.344 333.68 370.01 333.68C372.944 333.68 375.224 334.347 376.85 335.68C378.504 337.013 379.33 338.8 379.33 341.04V341.88C379.33 342.013 379.277 342.133 379.17 342.24C379.09 342.32 378.984 342.36 378.85 342.36H377.69C377.557 342.36 377.437 342.32 377.33 342.24C377.25 342.133 377.21 342.013 377.21 341.88V341.16C377.21 339.48 376.57 338.133 375.29 337.12C374.01 336.08 372.21 335.56 369.89 335.56C367.864 335.56 366.304 335.987 365.21 336.84C364.117 337.667 363.57 338.867 363.57 340.44C363.57 341.507 363.824 342.373 364.33 343.04C364.837 343.707 365.557 344.293 366.49 344.8C367.45 345.28 368.917 345.92 370.89 346.72C372.864 347.52 374.45 348.293 375.65 349.04C376.877 349.76 377.837 350.613 378.53 351.6C379.224 352.587 379.57 353.773 379.57 355.16C379.57 357.32 378.77 359.053 377.17 360.36C375.57 361.667 373.33 362.32 370.45 362.32ZM400.098 341.52C402.444 341.52 404.231 342.133 405.458 343.36C406.684 344.56 407.298 346.187 407.298 348.24V361.52C407.298 361.653 407.244 361.773 407.138 361.88C407.058 361.96 406.951 362 406.818 362H405.658C405.524 362 405.404 361.96 405.298 361.88C405.218 361.773 405.178 361.653 405.178 361.52V359.8C405.178 359.747 405.151 359.707 405.098 359.68C405.071 359.653 405.031 359.667 404.978 359.72C404.284 360.573 403.364 361.227 402.218 361.68C401.071 362.107 399.844 362.32 398.538 362.32C396.671 362.32 395.111 361.867 393.858 360.96C392.604 360.027 391.978 358.587 391.978 356.64C391.978 354.667 392.711 353.107 394.178 351.96C395.644 350.813 397.658 350.24 400.217 350.24H405.018C405.124 350.24 405.178 350.187 405.178 350.08V348.28C405.178 346.76 404.764 345.573 403.938 344.72C403.111 343.84 401.818 343.4 400.058 343.4C398.698 343.4 397.578 343.68 396.698 344.24C395.818 344.773 395.271 345.507 395.058 346.44C394.978 346.76 394.791 346.893 394.498 346.84L393.258 346.68C392.911 346.627 392.764 346.48 392.818 346.24C393.084 344.827 393.871 343.693 395.178 342.84C396.484 341.96 398.124 341.52 400.098 341.52ZM398.938 360.48C400.618 360.48 402.071 360.067 403.298 359.24C404.551 358.413 405.178 357.267 405.178 355.8V352.16C405.178 352.053 405.124 352 405.018 352H400.458C398.538 352 396.991 352.4 395.817 353.2C394.671 354 394.098 355.107 394.098 356.52C394.098 357.827 394.551 358.813 395.458 359.48C396.364 360.147 397.524 360.48 398.938 360.48ZM421.612 341.56C423.665 341.56 425.319 342.187 426.572 343.44C427.825 344.693 428.452 346.347 428.452 348.4V361.52C428.452 361.653 428.399 361.773 428.292 361.88C428.212 361.96 428.105 362 427.972 362H426.812C426.679 362 426.559 361.96 426.452 361.88C426.372 361.773 426.332 361.653 426.332 361.52V348.8C426.332 347.227 425.852 345.947 424.892 344.96C423.932 343.947 422.692 343.44 421.172 343.44C419.545 343.44 418.239 343.933 417.252 344.92C416.265 345.88 415.772 347.147 415.772 348.72V361.52C415.772 361.653 415.719 361.773 415.612 361.88C415.532 361.96 415.425 362 415.292 362H414.132C413.999 362 413.879 361.96 413.772 361.88C413.692 361.773 413.652 361.653 413.652 361.52V342.32C413.652 342.187 413.692 342.08 413.772 342C413.879 341.893 413.999 341.84 414.132 341.84H415.292C415.425 341.84 415.532 341.893 415.612 342C415.719 342.08 415.772 342.187 415.772 342.32V344.2C415.772 344.28 415.785 344.333 415.812 344.36C415.865 344.36 415.905 344.333 415.932 344.28C416.519 343.4 417.292 342.733 418.252 342.28C419.239 341.8 420.359 341.56 421.612 341.56ZM447.576 334.48C447.576 334.347 447.616 334.24 447.696 334.16C447.803 334.053 447.923 334 448.056 334H449.216C449.35 334 449.456 334.053 449.536 334.16C449.643 334.24 449.696 334.347 449.696 334.48V361.52C449.696 361.653 449.643 361.773 449.536 361.88C449.456 361.96 449.35 362 449.216 362H448.056C447.923 362 447.803 361.96 447.696 361.88C447.616 361.773 447.576 361.653 447.576 361.52V359.64C447.576 359.56 447.55 359.52 447.496 359.52C447.47 359.493 447.43 359.507 447.376 359.56C446.79 360.44 446.03 361.12 445.096 361.6C444.19 362.08 443.15 362.32 441.976 362.32C440.163 362.32 438.63 361.84 437.376 360.88C436.123 359.92 435.27 358.627 434.816 357C434.523 355.88 434.376 354.2 434.376 351.96C434.376 350.76 434.403 349.773 434.456 349C434.51 348.227 434.616 347.533 434.776 346.92C435.203 345.267 436.043 343.96 437.296 343C438.576 342.013 440.136 341.52 441.976 341.52C443.15 341.52 444.19 341.76 445.096 342.24C446.03 342.693 446.79 343.36 447.376 344.24C447.403 344.293 447.443 344.307 447.496 344.28C447.55 344.253 447.576 344.213 447.576 344.16V334.48ZM447.056 356.68C447.243 356.173 447.363 355.6 447.416 354.96C447.496 354.32 447.536 353.32 447.536 351.96C447.536 350.547 447.496 349.52 447.416 348.88C447.336 348.213 447.203 347.613 447.016 347.08C446.75 345.987 446.19 345.107 445.336 344.44C444.483 343.747 443.443 343.4 442.216 343.4C440.963 343.4 439.883 343.747 438.976 344.44C438.07 345.107 437.456 345.973 437.136 347.04C436.896 347.6 436.723 348.2 436.616 348.84C436.536 349.48 436.496 350.507 436.496 351.92C436.496 353.253 436.536 354.24 436.616 354.88C436.696 355.493 436.83 356.093 437.016 356.68C437.31 357.8 437.923 358.707 438.856 359.4C439.79 360.093 440.91 360.44 442.216 360.44C443.47 360.44 444.51 360.093 445.336 359.4C446.19 358.707 446.763 357.8 447.056 356.68ZM465.788 362C465.654 362 465.534 361.96 465.428 361.88C465.348 361.773 465.308 361.653 465.308 361.52V334.48C465.308 334.347 465.348 334.24 465.428 334.16C465.534 334.053 465.654 334 465.788 334H467.028C467.268 334 467.454 334.107 467.588 334.32L475.308 346.52C475.334 346.547 475.374 346.56 475.428 346.56C475.481 346.56 475.521 346.547 475.548 346.52L483.308 334.32C483.441 334.107 483.628 334 483.868 334H485.108C485.241 334 485.348 334.053 485.428 334.16C485.534 334.24 485.588 334.347 485.588 334.48V361.52C485.588 361.653 485.534 361.773 485.428 361.88C485.348 361.96 485.241 362 485.108 362H483.948C483.814 362 483.694 361.96 483.588 361.88C483.508 361.773 483.468 361.653 483.468 361.52V338.12C483.468 338.04 483.441 338 483.388 338C483.334 337.973 483.294 338 483.268 338.08L476.348 349.04C476.241 349.253 476.054 349.36 475.788 349.36H475.148C474.908 349.36 474.721 349.253 474.588 349.04L467.628 338.08C467.601 338 467.561 337.973 467.508 338C467.454 338 467.428 338.04 467.428 338.12V361.52C467.428 361.653 467.374 361.773 467.268 361.88C467.188 361.96 467.081 362 466.948 362H465.788ZM499.863 341.52C502.21 341.52 503.996 342.133 505.223 343.36C506.45 344.56 507.063 346.187 507.063 348.24V361.52C507.063 361.653 507.01 361.773 506.903 361.88C506.823 361.96 506.716 362 506.583 362H505.423C505.29 362 505.17 361.96 505.063 361.88C504.983 361.773 504.943 361.653 504.943 361.52V359.8C504.943 359.747 504.916 359.707 504.863 359.68C504.836 359.653 504.796 359.667 504.743 359.72C504.05 360.573 503.13 361.227 501.983 361.68C500.836 362.107 499.61 362.32 498.303 362.32C496.436 362.32 494.876 361.867 493.623 360.96C492.37 360.027 491.743 358.587 491.743 356.64C491.743 354.667 492.476 353.107 493.943 351.96C495.41 350.813 497.423 350.24 499.983 350.24H504.783C504.89 350.24 504.943 350.187 504.943 350.08V348.28C504.943 346.76 504.53 345.573 503.703 344.72C502.876 343.84 501.583 343.4 499.823 343.4C498.463 343.4 497.343 343.68 496.463 344.24C495.583 344.773 495.036 345.507 494.823 346.44C494.743 346.76 494.556 346.893 494.263 346.84L493.023 346.68C492.676 346.627 492.53 346.48 492.583 346.24C492.85 344.827 493.636 343.693 494.943 342.84C496.25 341.96 497.89 341.52 499.863 341.52ZM498.703 360.48C500.383 360.48 501.836 360.067 503.063 359.24C504.316 358.413 504.943 357.267 504.943 355.8V352.16C504.943 352.053 504.89 352 504.783 352H500.223C498.303 352 496.756 352.4 495.583 353.2C494.436 354 493.863 355.107 493.863 356.52C493.863 357.827 494.316 358.813 495.223 359.48C496.13 360.147 497.29 360.48 498.703 360.48ZM520.738 362.32C518.844 362.32 517.231 361.827 515.898 360.84C514.591 359.853 513.711 358.533 513.258 356.88C512.911 355.6 512.738 353.933 512.738 351.88C512.738 349.907 512.911 348.253 513.258 346.92C513.684 345.293 514.564 343.987 515.898 343C517.231 342.013 518.844 341.52 520.738 341.52C522.631 341.52 524.258 342 525.618 342.96C527.004 343.92 527.884 345.12 528.258 346.56C528.364 346.88 528.444 347.227 528.498 347.6V347.68C528.498 347.92 528.351 348.067 528.058 348.12L526.938 348.28H526.858C526.618 348.28 526.458 348.133 526.378 347.84C526.378 347.733 526.351 347.573 526.298 347.36C526.058 346.24 525.431 345.307 524.418 344.56C523.404 343.787 522.178 343.4 520.738 343.4C519.271 343.4 518.044 343.787 517.058 344.56C516.098 345.333 515.484 346.36 515.217 347.64C514.978 348.653 514.858 350.08 514.858 351.92C514.858 353.787 514.978 355.2 515.217 356.16C515.484 357.467 516.098 358.507 517.058 359.28C518.044 360.053 519.271 360.44 520.738 360.44C522.178 360.44 523.404 360.067 524.418 359.32C525.458 358.547 526.084 357.587 526.298 356.44L526.338 356.28C526.364 356.147 526.431 356.053 526.538 356C526.644 355.92 526.764 355.893 526.898 355.92L527.978 356.04C528.111 356.067 528.218 356.133 528.298 356.24C528.404 356.32 528.444 356.44 528.418 356.6L528.258 357.24C527.884 358.733 527.004 359.96 525.618 360.92C524.258 361.853 522.631 362.32 520.738 362.32ZM542.963 362.32C541.123 362.32 539.496 361.947 538.083 361.2C536.696 360.427 535.616 359.36 534.843 358C534.096 356.613 533.723 355.027 533.723 353.24V342.76C533.723 340.973 534.096 339.4 534.843 338.04C535.616 336.653 536.696 335.587 538.083 334.84C539.496 334.067 541.123 333.68 542.963 333.68C544.803 333.68 546.429 334.067 547.843 334.84C549.256 335.587 550.349 336.653 551.122 338.04C551.896 339.4 552.283 340.973 552.283 342.76V353.24C552.283 355.027 551.896 356.613 551.122 358C550.349 359.36 549.256 360.427 547.843 361.2C546.429 361.947 544.803 362.32 542.963 362.32ZM542.963 360.48C545.123 360.48 546.856 359.827 548.163 358.52C549.496 357.213 550.163 355.48 550.163 353.32V342.72C550.163 340.587 549.496 338.867 548.163 337.56C546.856 336.227 545.123 335.56 542.963 335.56C540.829 335.56 539.109 336.227 537.803 337.56C536.496 338.867 535.842 340.587 535.842 342.72V353.32C535.842 355.48 536.496 357.213 537.803 358.52C539.109 359.827 540.829 360.48 542.963 360.48ZM567.325 362.32C564.445 362.32 562.152 361.667 560.445 360.36C558.765 359.027 557.925 357.253 557.925 355.04V353.8C557.925 353.667 557.965 353.56 558.045 353.48C558.152 353.373 558.272 353.32 558.405 353.32H559.485C559.619 353.32 559.725 353.373 559.805 353.48C559.912 353.56 559.965 353.667 559.965 353.8V354.92C559.965 356.573 560.645 357.907 562.005 358.92C563.365 359.933 565.205 360.44 567.525 360.44C569.739 360.44 571.419 359.987 572.565 359.08C573.739 358.147 574.325 356.867 574.325 355.24C574.325 354.253 574.072 353.4 573.565 352.68C573.059 351.933 572.259 351.24 571.165 350.6C570.072 349.96 568.552 349.227 566.605 348.4C564.525 347.52 562.952 346.787 561.885 346.2C560.819 345.613 559.965 344.88 559.325 344C558.685 343.093 558.365 341.933 558.365 340.52C558.365 338.333 559.112 336.653 560.605 335.48C562.125 334.28 564.219 333.68 566.885 333.68C569.819 333.68 572.099 334.347 573.725 335.68C575.379 337.013 576.205 338.8 576.205 341.04V341.88C576.205 342.013 576.152 342.133 576.045 342.24C575.965 342.32 575.859 342.36 575.725 342.36H574.565C574.432 342.36 574.312 342.32 574.205 342.24C574.125 342.133 574.085 342.013 574.085 341.88V341.16C574.085 339.48 573.445 338.133 572.165 337.12C570.885 336.08 569.085 335.56 566.765 335.56C564.739 335.56 563.179 335.987 562.085 336.84C560.992 337.667 560.445 338.867 560.445 340.44C560.445 341.507 560.699 342.373 561.205 343.04C561.712 343.707 562.432 344.293 563.365 344.8C564.325 345.28 565.792 345.92 567.765 346.72C569.739 347.52 571.325 348.293 572.525 349.04C573.752 349.76 574.712 350.613 575.405 351.6C576.099 352.587 576.445 353.773 576.445 355.16C576.445 357.32 575.645 359.053 574.045 360.36C572.445 361.667 570.205 362.32 567.325 362.32ZM584.685 353C584.551 353 584.431 352.96 584.325 352.88C584.245 352.773 584.205 352.653 584.205 352.52L584.085 334.48C584.085 334.347 584.125 334.24 584.205 334.16C584.311 334.053 584.431 334 584.565 334H585.725C585.858 334 585.965 334.053 586.045 334.16C586.151 334.24 586.205 334.347 586.205 334.48L586.045 352.52C586.045 352.653 585.991 352.773 585.885 352.88C585.805 352.96 585.698 353 585.565 353H584.685ZM585.005 361.84C584.391 361.84 583.871 361.64 583.445 361.24C583.045 360.813 582.845 360.307 582.845 359.72C582.845 359.16 583.058 358.68 583.485 358.28C583.938 357.853 584.445 357.64 585.005 357.64C585.591 357.64 586.098 357.853 586.525 358.28C586.978 358.68 587.205 359.16 587.205 359.72C587.205 360.307 586.991 360.813 586.565 361.24C586.138 361.64 585.618 361.84 585.005 361.84Z" fill="black"/>
<rect x="664.139" y="59.5963" width="331.297" height="317.397" rx="45" fill="url(#paint0_radial_30_550)"/>
<g filter="url(#filter0_d_30_550)">
<circle cx="942.151" cy="59.5963" r="9.26706" fill="white"/>
</g>
<g filter="url(#filter1_d_30_550)">
<circle cx="698.891" cy="373.518" r="9.26706" fill="white"/>
</g>
<g filter="url(#filter2_d_30_550)">
<path d="M858.921 147.807C867.913 138.768 882.541 138.768 891.533 147.807L942.758 199.3C951.806 208.395 951.664 223.134 942.442 232.053L891.528 281.298C882.488 290.041 868.102 289.902 859.232 280.986L858.603 280.354C849.472 271.175 849.713 256.271 859.136 247.393L875.426 232.043C884.849 223.165 885.09 208.261 875.959 199.083L858.072 181.102C849.147 172.13 849.147 157.632 858.072 148.66L858.921 147.807Z" fill="black"/>
</g>
<g filter="url(#filter3_d_30_550)">
<path d="M718.193 147.807C727.185 138.768 741.813 138.768 750.805 147.807L802.03 199.3C811.078 208.395 810.936 223.134 801.715 232.053L750.8 281.298C741.76 290.041 727.374 289.902 718.505 280.986L717.875 280.354C708.744 271.175 708.985 256.271 718.408 247.393L734.698 232.043C744.121 223.165 744.362 208.261 735.232 199.083L717.344 181.102C708.419 172.13 708.419 157.632 717.344 148.66L718.193 147.807Z" fill="black"/>
</g>
<g filter="url(#filter4_d_30_550)">
<path d="M699.251 375.135L710.196 326.37C719.984 282.762 748.708 245.79 788.543 225.525L857.161 190.619C896.996 170.354 925.72 133.382 935.507 89.7738L942.424 58.9569" stroke="white" stroke-width="10"/>
</g>
<g filter="url(#filter5_d_30_550)">
<path d="M810.374 170.452C816.495 164.288 826.464 164.288 832.585 170.452L860.712 198.779C869.74 207.87 869.598 222.586 860.397 231.502L832.508 258.526C826.396 264.449 816.656 264.355 810.659 258.315C804.501 252.113 804.663 242.055 811.019 236.056L816.215 231.15C825.42 222.462 825.655 207.896 816.737 198.915L810.374 192.507C804.314 186.404 804.314 176.555 810.374 170.452Z" fill="black"/>
</g>
<path d="M208.256 88.432C208.256 88.944 208 89.2 207.488 89.2H191.36C191.168 89.2 191.072 89.296 191.072 89.488V98.368C191.072 98.56 191.168 98.656 191.36 98.656H202.112C202.624 98.656 202.88 98.912 202.88 99.424V102.688C202.88 103.2 202.624 103.456 202.112 103.456H191.36C191.168 103.456 191.072 103.552 191.072 103.744V112.912C191.072 113.104 191.168 113.2 191.36 113.2H207.488C208 113.2 208.256 113.456 208.256 113.968V117.232C208.256 117.744 208 118 207.488 118H186.272C185.76 118 185.504 117.744 185.504 117.232V85.168C185.504 84.656 185.76 84.4 186.272 84.4H207.488C208 84.4 208.256 84.656 208.256 85.168V88.432ZM214.678 118C214.166 118 213.91 117.744 213.91 117.232V85.168C213.91 84.656 214.166 84.4 214.678 84.4H218.518C218.966 84.4 219.286 84.576 219.478 84.928L232.918 106.912C232.982 107.04 233.046 107.088 233.11 107.056C233.206 107.024 233.254 106.944 233.254 106.816V85.168C233.254 84.656 233.51 84.4 234.022 84.4H238.054C238.566 84.4 238.822 84.656 238.822 85.168V117.232C238.822 117.744 238.566 118 238.054 118H234.118C233.67 118 233.35 117.824 233.158 117.472L219.718 95.344C219.654 95.216 219.574 95.168 219.478 95.2C219.414 95.232 219.382 95.312 219.382 95.44L219.43 117.232C219.43 117.744 219.174 118 218.662 118H214.678ZM264.073 85.168C264.073 84.656 264.329 84.4 264.841 84.4H268.873C269.385 84.4 269.641 84.656 269.641 85.168V117.232C269.641 117.744 269.385 118 268.873 118H264.841C264.329 118 264.073 117.744 264.073 117.232V103.744C264.073 103.552 263.977 103.456 263.785 103.456H251.641C251.449 103.456 251.353 103.552 251.353 103.744V117.232C251.353 117.744 251.097 118 250.585 118H246.553C246.041 118 245.785 117.744 245.785 117.232V85.168C245.785 84.656 246.041 84.4 246.553 84.4H250.585C251.097 84.4 251.353 84.656 251.353 85.168V98.368C251.353 98.56 251.449 98.656 251.641 98.656H263.785C263.977 98.656 264.073 98.56 264.073 98.368V85.168ZM297.559 118C297.111 118 296.823 117.792 296.695 117.376L295.207 112.432C295.175 112.272 295.063 112.192 294.871 112.192H282.295C282.103 112.192 281.991 112.272 281.959 112.432L280.471 117.376C280.343 117.792 280.055 118 279.607 118H275.239C274.983 118 274.791 117.92 274.663 117.76C274.567 117.6 274.551 117.392 274.615 117.136L284.887 85.024C285.015 84.608 285.303 84.4 285.751 84.4H291.367C291.815 84.4 292.103 84.608 292.231 85.024L302.551 117.136C302.583 117.2 302.599 117.296 302.599 117.424C302.599 117.808 302.375 118 301.927 118H297.559ZM283.447 107.488C283.415 107.712 283.495 107.824 283.687 107.824H293.479C293.671 107.824 293.751 107.712 293.719 107.488L288.775 91.168C288.743 91.04 288.679 90.976 288.583 90.976C288.519 90.976 288.455 91.04 288.391 91.168L283.447 107.488ZM308.428 118C307.916 118 307.66 117.744 307.66 117.232V85.168C307.66 84.656 307.916 84.4 308.428 84.4H312.268C312.716 84.4 313.036 84.576 313.228 84.928L326.668 106.912C326.732 107.04 326.796 107.088 326.86 107.056C326.956 107.024 327.004 106.944 327.004 106.816V85.168C327.004 84.656 327.26 84.4 327.772 84.4H331.804C332.316 84.4 332.572 84.656 332.572 85.168V117.232C332.572 117.744 332.316 118 331.804 118H327.868C327.42 118 327.1 117.824 326.908 117.472L313.468 95.344C313.404 95.216 313.324 95.168 313.228 95.2C313.164 95.232 313.132 95.312 313.132 95.44L313.18 117.232C313.18 117.744 312.924 118 312.412 118H308.428ZM350.767 118.384C348.367 118.384 346.255 117.92 344.431 116.992C342.607 116.032 341.199 114.704 340.207 113.008C339.215 111.312 338.719 109.344 338.719 107.104V95.248C338.719 93.008 339.215 91.04 340.207 89.344C341.199 87.648 342.607 86.336 344.431 85.408C346.255 84.48 348.367 84.016 350.767 84.016C353.135 84.016 355.231 84.464 357.055 85.36C358.879 86.256 360.287 87.52 361.279 89.152C362.271 90.784 362.767 92.672 362.767 94.816C362.767 95.136 362.527 95.328 362.047 95.392L357.967 95.632H357.775C357.391 95.632 357.199 95.552 357.199 95.392V95.104C357.199 93.216 356.607 91.696 355.423 90.544C354.271 89.392 352.719 88.816 350.767 88.816C348.815 88.816 347.247 89.392 346.063 90.544C344.879 91.696 344.287 93.216 344.287 95.104V107.344C344.287 109.2 344.879 110.704 346.063 111.856C347.247 113.008 348.815 113.584 350.767 113.584C352.719 113.584 354.271 113.024 355.423 111.904C356.607 110.752 357.199 109.232 357.199 107.344C357.199 107.184 357.263 107.056 357.391 106.96C357.551 106.832 357.743 106.784 357.967 106.816L361.999 107.008C362.511 107.072 362.767 107.152 362.767 107.248V107.488C362.767 109.664 362.271 111.584 361.279 113.248C360.287 114.88 358.879 116.144 357.055 117.04C355.231 117.936 353.135 118.384 350.767 118.384ZM391.49 88.432C391.49 88.944 391.234 89.2 390.722 89.2H374.594C374.402 89.2 374.306 89.296 374.306 89.488V98.368C374.306 98.56 374.402 98.656 374.594 98.656H385.346C385.858 98.656 386.114 98.912 386.114 99.424V102.688C386.114 103.2 385.858 103.456 385.346 103.456H374.594C374.402 103.456 374.306 103.552 374.306 103.744V112.912C374.306 113.104 374.402 113.2 374.594 113.2H390.722C391.234 113.2 391.49 113.456 391.49 113.968V117.232C391.49 117.744 391.234 118 390.722 118H369.506C368.994 118 368.738 117.744 368.738 117.232V85.168C368.738 84.656 368.994 84.4 369.506 84.4H390.722C391.234 84.4 391.49 84.656 391.49 85.168V88.432ZM415.586 117.952C415.074 117.952 414.818 117.696 414.818 117.184V104.56C414.818 104.464 414.786 104.352 414.722 104.224L405.026 85.312C404.93 85.152 404.882 85.008 404.882 84.88C404.882 84.56 405.106 84.4 405.554 84.4H409.922C410.338 84.4 410.642 84.592 410.834 84.976L417.41 98.176C417.474 98.272 417.538 98.32 417.602 98.32C417.698 98.32 417.762 98.272 417.794 98.176L424.418 84.976C424.61 84.592 424.914 84.4 425.33 84.4H429.746C430.194 84.4 430.418 84.56 430.418 84.88C430.418 85.008 430.37 85.152 430.274 85.312L420.482 104.224C420.418 104.416 420.386 104.528 420.386 104.56V117.184C420.386 117.696 420.13 117.952 419.618 117.952H415.586ZM445.364 118.48C442.964 118.48 440.836 118 438.98 117.04C437.124 116.048 435.684 114.656 434.66 112.864C433.668 111.072 433.172 109.008 433.172 106.672V95.728C433.172 93.424 433.684 91.392 434.708 89.632C435.732 87.84 437.156 86.464 438.98 85.504C440.836 84.512 442.964 84.016 445.364 84.016C447.796 84.016 449.924 84.512 451.748 85.504C453.604 86.464 455.044 87.84 456.068 89.632C457.092 91.392 457.604 93.424 457.604 95.728V106.672C457.604 109.008 457.092 111.072 456.068 112.864C455.044 114.656 453.604 116.048 451.748 117.04C449.924 118 447.796 118.48 445.364 118.48ZM445.364 113.68C447.38 113.68 448.996 113.056 450.212 111.808C451.428 110.56 452.036 108.912 452.036 106.864V95.68C452.036 93.6 451.428 91.936 450.212 90.688C448.996 89.44 447.38 88.816 445.364 88.816C443.38 88.816 441.78 89.44 440.564 90.688C439.348 91.936 438.74 93.6 438.74 95.68V106.864C438.74 108.912 439.348 110.56 440.564 111.808C441.78 113.056 443.38 113.68 445.364 113.68ZM475.561 118.384C473.193 118.384 471.097 117.92 469.273 116.992C467.449 116.064 466.025 114.752 465.001 113.056C464.009 111.328 463.513 109.344 463.513 107.104V85.168C463.513 84.656 463.769 84.4 464.281 84.4H468.313C468.825 84.4 469.081 84.656 469.081 85.168V107.2C469.081 109.088 469.673 110.624 470.857 111.808C472.041 112.992 473.609 113.584 475.561 113.584C477.513 113.584 479.081 112.992 480.265 111.808C481.449 110.624 482.041 109.088 482.041 107.2V85.168C482.041 84.656 482.297 84.4 482.809 84.4H486.841C487.353 84.4 487.609 84.656 487.609 85.168V107.104C487.609 109.344 487.113 111.328 486.121 113.056C485.129 114.752 483.721 116.064 481.897 116.992C480.073 117.92 477.961 118.384 475.561 118.384ZM513.325 118C512.877 118 512.573 117.808 512.413 117.424L506.125 103.696C506.093 103.568 505.981 103.504 505.789 103.504H500.173C499.981 103.504 499.885 103.6 499.885 103.792V117.232C499.885 117.744 499.629 118 499.117 118H495.085C494.573 118 494.317 117.744 494.317 117.232V85.12C494.317 84.608 494.573 84.352 495.085 84.352H508.093C510.045 84.352 511.773 84.768 513.277 85.6C514.781 86.4 515.949 87.552 516.781 89.056C517.613 90.528 518.029 92.224 518.029 94.144C518.029 96.352 517.453 98.24 516.301 99.808C515.181 101.344 513.629 102.4 511.645 102.976C511.549 103.008 511.485 103.072 511.453 103.168C511.421 103.232 511.437 103.296 511.501 103.36L518.125 117.088L518.221 117.472C518.221 117.824 517.997 118 517.549 118H513.325ZM500.173 89.152C499.981 89.152 499.885 89.248 499.885 89.44V98.896C499.885 99.088 499.981 99.184 500.173 99.184H507.325C508.861 99.184 510.093 98.736 511.021 97.84C511.981 96.912 512.461 95.712 512.461 94.24C512.461 92.736 511.981 91.52 511.021 90.592C510.093 89.632 508.861 89.152 507.325 89.152H500.173ZM196.304 173.384C193.872 173.384 191.728 172.984 189.872 172.184C188.048 171.384 186.64 170.264 185.648 168.824C184.656 167.352 184.16 165.656 184.16 163.736V162.728C184.16 162.216 184.416 161.96 184.928 161.96H188.864C189.376 161.96 189.632 162.2 189.632 162.68V163.448C189.632 164.92 190.272 166.152 191.552 167.144C192.864 168.104 194.592 168.584 196.736 168.584C198.688 168.584 200.16 168.168 201.152 167.336C202.144 166.504 202.64 165.432 202.64 164.12C202.64 163.224 202.368 162.472 201.824 161.864C201.28 161.224 200.496 160.648 199.472 160.136C198.48 159.624 196.976 158.984 194.96 158.216C192.688 157.384 190.848 156.6 189.44 155.864C188.032 155.128 186.848 154.136 185.888 152.888C184.96 151.608 184.496 150.024 184.496 148.136C184.496 145.32 185.52 143.096 187.568 141.464C189.616 139.832 192.352 139.016 195.776 139.016C198.176 139.016 200.288 139.432 202.112 140.264C203.968 141.096 205.408 142.264 206.432 143.768C207.456 145.24 207.968 146.952 207.968 148.904V149.528C207.968 150.04 207.712 150.296 207.2 150.296H203.264C203.04 150.296 202.848 150.248 202.688 150.152C202.56 150.024 202.496 149.88 202.496 149.72V149.192C202.496 147.688 201.872 146.424 200.624 145.4C199.408 144.344 197.712 143.816 195.536 143.816C193.776 143.816 192.4 144.184 191.408 144.92C190.448 145.656 189.968 146.696 189.968 148.04C189.968 149 190.224 149.784 190.736 150.392C191.248 151 192.016 151.56 193.04 152.072C194.064 152.552 195.648 153.176 197.792 153.944C200.064 154.808 201.872 155.592 203.216 156.296C204.592 157 205.76 157.992 206.72 159.272C207.712 160.52 208.208 162.088 208.208 163.976C208.208 165.832 207.728 167.48 206.768 168.92C205.808 170.328 204.432 171.432 202.64 172.232C200.848 173 198.736 173.384 196.304 173.384ZM235.095 139.4C235.607 139.4 235.863 139.656 235.863 140.168V143.48C235.863 143.992 235.607 144.248 235.095 144.248H226.503C226.311 144.248 226.215 144.344 226.215 144.536V172.232C226.215 172.744 225.959 173 225.447 173H221.415C220.903 173 220.647 172.744 220.647 172.232V144.536C220.647 144.344 220.551 144.248 220.359 144.248H212.103C211.591 144.248 211.335 143.992 211.335 143.48V140.168C211.335 139.656 211.591 139.4 212.103 139.4H235.095ZM252.764 173.384C250.396 173.384 248.3 172.92 246.476 171.992C244.652 171.064 243.228 169.752 242.204 168.056C241.212 166.328 240.716 164.344 240.716 162.104V140.168C240.716 139.656 240.972 139.4 241.484 139.4H245.516C246.028 139.4 246.284 139.656 246.284 140.168V162.2C246.284 164.088 246.876 165.624 248.06 166.808C249.244 167.992 250.812 168.584 252.764 168.584C254.716 168.584 256.284 167.992 257.468 166.808C258.652 165.624 259.244 164.088 259.244 162.2V140.168C259.244 139.656 259.5 139.4 260.012 139.4H264.044C264.556 139.4 264.812 139.656 264.812 140.168V162.104C264.812 164.344 264.316 166.328 263.324 168.056C262.332 169.752 260.924 171.064 259.1 171.992C257.276 172.92 255.164 173.384 252.764 173.384ZM272.288 173C271.776 173 271.52 172.744 271.52 172.232V140.168C271.52 139.656 271.776 139.4 272.288 139.4H283.808C286.08 139.4 288.08 139.8 289.808 140.6C291.536 141.4 292.864 142.552 293.792 144.056C294.752 145.528 295.232 147.256 295.232 149.24V163.16C295.232 165.144 294.752 166.888 293.792 168.392C292.864 169.864 291.536 171 289.808 171.8C288.08 172.6 286.08 173 283.808 173H272.288ZM277.088 167.912C277.088 168.104 277.184 168.2 277.376 168.2H284.048C285.744 168.2 287.088 167.672 288.08 166.616C289.104 165.528 289.632 164.088 289.664 162.296V150.152C289.664 148.328 289.152 146.888 288.128 145.832C287.104 144.744 285.728 144.2 284 144.2H277.376C277.184 144.2 277.088 144.296 277.088 144.488V167.912ZM301.96 173C301.448 173 301.192 172.744 301.192 172.232V140.168C301.192 139.656 301.448 139.4 301.96 139.4H305.992C306.504 139.4 306.76 139.656 306.76 140.168V172.232C306.76 172.744 306.504 173 305.992 173H301.96ZM336.506 143.432C336.506 143.944 336.25 144.2 335.738 144.2H319.61C319.418 144.2 319.322 144.296 319.322 144.488V153.368C319.322 153.56 319.418 153.656 319.61 153.656H330.362C330.874 153.656 331.13 153.912 331.13 154.424V157.688C331.13 158.2 330.874 158.456 330.362 158.456H319.61C319.418 158.456 319.322 158.552 319.322 158.744V167.912C319.322 168.104 319.418 168.2 319.61 168.2H335.738C336.25 168.2 336.506 168.456 336.506 168.968V172.232C336.506 172.744 336.25 173 335.738 173H314.522C314.01 173 313.754 172.744 313.754 172.232V140.168C313.754 139.656 314.01 139.4 314.522 139.4H335.738C336.25 139.4 336.506 139.656 336.506 140.168V143.432ZM352.96 173.384C350.528 173.384 348.384 172.984 346.528 172.184C344.704 171.384 343.296 170.264 342.304 168.824C341.312 167.352 340.816 165.656 340.816 163.736V162.728C340.816 162.216 341.072 161.96 341.584 161.96H345.52C346.032 161.96 346.288 162.2 346.288 162.68V163.448C346.288 164.92 346.928 166.152 348.208 167.144C349.52 168.104 351.248 168.584 353.392 168.584C355.344 168.584 356.816 168.168 357.808 167.336C358.8 166.504 359.296 165.432 359.296 164.12C359.296 163.224 359.024 162.472 358.48 161.864C357.936 161.224 357.152 160.648 356.128 160.136C355.136 159.624 353.632 158.984 351.616 158.216C349.344 157.384 347.504 156.6 346.096 155.864C344.688 155.128 343.504 154.136 342.544 152.888C341.616 151.608 341.152 150.024 341.152 148.136C341.152 145.32 342.176 143.096 344.224 141.464C346.272 139.832 349.008 139.016 352.432 139.016C354.832 139.016 356.944 139.432 358.768 140.264C360.624 141.096 362.064 142.264 363.088 143.768C364.112 145.24 364.624 146.952 364.624 148.904V149.528C364.624 150.04 364.368 150.296 363.856 150.296H359.92C359.696 150.296 359.504 150.248 359.344 150.152C359.216 150.024 359.152 149.88 359.152 149.72V149.192C359.152 147.688 358.528 146.424 357.28 145.4C356.064 144.344 354.368 143.816 352.192 143.816C350.432 143.816 349.056 144.184 348.064 144.92C347.104 145.656 346.624 146.696 346.624 148.04C346.624 149 346.88 149.784 347.392 150.392C347.904 151 348.672 151.56 349.696 152.072C350.72 152.552 352.304 153.176 354.448 153.944C356.72 154.808 358.528 155.592 359.872 156.296C361.248 157 362.416 157.992 363.376 159.272C364.368 160.52 364.864 162.088 364.864 163.976C364.864 165.832 364.384 167.48 363.424 168.92C362.464 170.328 361.088 171.432 359.296 172.232C357.504 173 355.392 173.384 352.96 173.384ZM387.138 173C386.658 173 386.37 172.776 386.274 172.328L377.634 140.264C377.602 140.2 377.586 140.12 377.586 140.024C377.586 139.832 377.65 139.688 377.778 139.592C377.906 139.464 378.082 139.4 378.306 139.4H382.626C383.074 139.4 383.346 139.624 383.442 140.072L388.866 161.672C388.898 161.8 388.962 161.864 389.058 161.864C389.154 161.864 389.218 161.8 389.25 161.672L394.386 140.072C394.482 139.624 394.754 139.4 395.202 139.4H399.522C400.002 139.4 400.29 139.624 400.386 140.072L405.858 161.672C405.89 161.8 405.954 161.864 406.05 161.864C406.146 161.864 406.21 161.8 406.242 161.672L411.57 140.072C411.666 139.624 411.938 139.4 412.386 139.4H416.514C416.77 139.4 416.946 139.48 417.042 139.64C417.17 139.8 417.202 140.008 417.138 140.264L408.978 172.328C408.882 172.776 408.594 173 408.114 173H403.938C403.49 173 403.218 172.776 403.122 172.328L397.554 149.72C397.522 149.592 397.458 149.528 397.362 149.528C397.266 149.528 397.202 149.592 397.17 149.72L391.842 172.328C391.746 172.776 391.474 173 391.026 173H387.138ZM422.475 173C421.963 173 421.707 172.744 421.707 172.232V140.168C421.707 139.656 421.963 139.4 422.475 139.4H426.507C427.019 139.4 427.275 139.656 427.275 140.168V172.232C427.275 172.744 427.019 173 426.507 173H422.475ZM456.158 139.4C456.67 139.4 456.926 139.656 456.926 140.168V143.48C456.926 143.992 456.67 144.248 456.158 144.248H447.566C447.374 144.248 447.278 144.344 447.278 144.536V172.232C447.278 172.744 447.022 173 446.51 173H442.478C441.966 173 441.71 172.744 441.71 172.232V144.536C441.71 144.344 441.614 144.248 441.422 144.248H433.166C432.654 144.248 432.398 143.992 432.398 143.48V140.168C432.398 139.656 432.654 139.4 433.166 139.4H456.158ZM480.355 140.168C480.355 139.656 480.611 139.4 481.123 139.4H485.155C485.667 139.4 485.923 139.656 485.923 140.168V172.232C485.923 172.744 485.667 173 485.155 173H481.123C480.611 173 480.355 172.744 480.355 172.232V158.744C480.355 158.552 480.259 158.456 480.067 158.456H467.923C467.731 158.456 467.635 158.552 467.635 158.744V172.232C467.635 172.744 467.379 173 466.867 173H462.835C462.323 173 462.067 172.744 462.067 172.232V140.168C462.067 139.656 462.323 139.4 462.835 139.4H466.867C467.379 139.4 467.635 139.656 467.635 140.168V153.368C467.635 153.56 467.731 153.656 467.923 153.656H480.067C480.259 153.656 480.355 153.56 480.355 153.368V140.168ZM187.568 260C186.352 260 185.744 259.392 185.744 258.176V194.624C185.744 193.408 186.352 192.8 187.568 192.8H201.968C203.184 192.8 203.792 193.408 203.792 194.624V258.176C203.792 259.392 203.184 260 201.968 260H187.568ZM211.436 240.32C210.22 240.32 209.612 239.712 209.612 238.496V226.784C209.612 225.568 210.22 224.96 211.436 224.96H243.788C245.004 224.96 245.612 225.568 245.612 226.784V238.496C245.612 239.712 245.004 240.32 243.788 240.32H211.436ZM253.287 260C252.071 260 251.463 259.392 251.463 258.176V194.624C251.463 193.408 252.071 192.8 253.287 192.8H277.575C282.759 192.8 287.335 193.696 291.303 195.488C295.335 197.28 298.439 199.808 300.615 203.072C302.791 206.336 303.879 210.112 303.879 214.4V238.4C303.879 242.688 302.791 246.464 300.615 249.728C298.439 252.992 295.335 255.52 291.303 257.312C287.335 259.104 282.759 260 277.575 260H253.287ZM269.511 243.776C269.511 244.288 269.767 244.544 270.279 244.544H278.247C280.423 244.544 282.215 243.712 283.623 242.048C285.031 240.32 285.767 238.08 285.831 235.328V217.472C285.831 214.72 285.127 212.512 283.719 210.848C282.311 209.12 280.455 208.256 278.151 208.256H270.279C269.767 208.256 269.511 208.512 269.511 209.024V243.776ZM351.525 260C350.437 260 349.765 259.488 349.509 258.464L347.589 251.552C347.461 251.104 347.173 250.88 346.725 250.88H326.757C326.309 250.88 326.021 251.104 325.893 251.552L323.973 258.464C323.717 259.488 323.045 260 321.957 260H306.405C305.765 260 305.285 259.808 304.965 259.424C304.709 259.04 304.677 258.528 304.869 257.888L324.837 194.336C325.157 193.312 325.829 192.8 326.853 192.8H346.629C347.653 192.8 348.325 193.312 348.645 194.336L368.613 257.888C368.677 258.08 368.709 258.304 368.709 258.56C368.709 259.52 368.165 260 367.077 260H351.525ZM330.117 236.384C330.117 236.832 330.341 237.056 330.789 237.056H342.693C342.949 237.056 343.141 236.992 343.269 236.864C343.397 236.672 343.429 236.448 343.365 236.192L337.221 214.016C337.157 213.696 336.997 213.536 336.741 213.536C336.549 213.536 336.389 213.696 336.261 214.016L330.117 236.192V236.384ZM394.923 260.768C389.739 260.768 385.163 259.904 381.195 258.176C377.227 256.384 374.155 253.856 371.979 250.592C369.803 247.328 368.715 243.552 368.715 239.264V238.304C368.715 237.088 369.323 236.48 370.539 236.48H384.651C385.867 236.48 386.475 236.8 386.475 237.44V238.496C386.475 240.224 387.403 241.792 389.259 243.2C391.115 244.608 393.451 245.312 396.267 245.312C398.635 245.312 400.331 244.832 401.355 243.872C402.379 242.848 402.891 241.728 402.891 240.512C402.891 239.104 402.251 238.048 400.971 237.344C399.691 236.64 397.355 235.776 393.963 234.752L391.179 233.984C384.843 232.064 379.531 229.504 375.243 226.304C370.955 223.104 368.811 218.464 368.811 212.384C368.811 208.352 369.899 204.8 372.075 201.728C374.251 198.592 377.227 196.192 381.003 194.528C384.843 192.864 389.131 192.032 393.867 192.032C398.859 192.032 403.371 192.96 407.403 194.816C411.499 196.672 414.699 199.296 417.003 202.688C419.371 206.08 420.555 209.952 420.555 214.304V214.784C420.555 216 419.947 216.608 418.731 216.608H404.619C403.403 216.608 402.795 216.352 402.795 215.84V215.072C402.795 213.152 401.931 211.424 400.203 209.888C398.475 208.288 396.139 207.488 393.195 207.488C391.147 207.488 389.515 207.904 388.299 208.736C387.147 209.568 386.571 210.72 386.571 212.192C386.571 213.344 386.987 214.336 387.819 215.168C388.715 215.936 390.059 216.704 391.851 217.472C393.643 218.176 396.395 219.104 400.107 220.256C400.619 220.448 402.859 221.152 406.827 222.368C410.859 223.52 414.219 225.664 416.907 228.8C419.595 231.872 420.939 235.616 420.939 240.032C420.939 244.192 419.851 247.84 417.675 250.976C415.499 254.112 412.427 256.544 408.459 258.272C404.555 259.936 400.043 260.768 394.923 260.768ZM461.228 194.624C461.228 193.408 461.836 192.8 463.052 192.8H477.452C478.668 192.8 479.276 193.408 479.276 194.624V258.176C479.276 259.392 478.668 260 477.452 260H463.052C461.836 260 461.228 259.392 461.228 258.176V234.464C461.228 233.952 460.972 233.696 460.46 233.696H446.06C445.548 233.696 445.292 233.952 445.292 234.464V258.176C445.292 259.392 444.684 260 443.468 260H429.068C427.852 260 427.244 259.392 427.244 258.176V194.624C427.244 193.408 427.852 192.8 429.068 192.8H443.468C444.684 192.8 445.292 193.408 445.292 194.624V217.472C445.292 217.984 445.548 218.24 446.06 218.24H460.46C460.972 218.24 461.228 217.984 461.228 217.472V194.624Z" fill="black"/>
<defs>
<filter id="filter0_d_30_550" x="928.884" y="50.3292" width="26.5341" height="26.5341" filterUnits="userSpaceOnUse" color-interpolation-filters="sRGB">
<feFlood flood-opacity="0" result="BackgroundImageFix"/>
<feColorMatrix in="SourceAlpha" type="matrix" values="0 0 0 0 0 0 0 0 0 0 0 0 0 0 0 0 0 0 127 0" result="hardAlpha"/>
<feOffset dy="4"/>
<feGaussianBlur stdDeviation="2"/>
<feComposite in2="hardAlpha" operator="out"/>
<feColorMatrix type="matrix" values="0 0 0 0 0 0 0 0 0 0 0 0 0 0 0 0 0 0 0.25 0"/>
<feBlend mode="normal" in2="BackgroundImageFix" result="effect1_dropShadow_30_550"/>
<feBlend mode="normal" in="SourceGraphic" in2="effect1_dropShadow_30_550" result="shape"/>
</filter>
<filter id="filter1_d_30_550" x="685.624" y="364.251" width="26.5341" height="26.5342" filterUnits="userSpaceOnUse" color-interpolation-filters="sRGB">
<feFlood flood-opacity="0" result="BackgroundImageFix"/>
<feColorMatrix in="SourceAlpha" type="matrix" values="0 0 0 0 0 0 0 0 0 0 0 0 0 0 0 0 0 0 127 0" result="hardAlpha"/>
<feOffset dy="4"/>
<feGaussianBlur stdDeviation="2"/>
<feComposite in2="hardAlpha" operator="out"/>
<feColorMatrix type="matrix" values="0 0 0 0 0 0 0 0 0 0 0 0 0 0 0 0 0 0 0.25 0"/>
<feBlend mode="normal" in2="BackgroundImageFix" result="effect1_dropShadow_30_550"/>
<feBlend mode="normal" in="SourceGraphic" in2="effect1_dropShadow_30_550" result="shape"/>
</filter>
<filter id="filter2_d_30_550" x="847.378" y="141.028" width="106.074" height="154.738" filterUnits="userSpaceOnUse" color-interpolation-filters="sRGB">
<feFlood flood-opacity="0" result="BackgroundImageFix"/>
<feColorMatrix in="SourceAlpha" type="matrix" values="0 0 0 0 0 0 0 0 0 0 0 0 0 0 0 0 0 0 127 0" result="hardAlpha"/>
<feOffset dy="4"/>
<feGaussianBlur stdDeviation="2"/>
<feComposite in2="hardAlpha" operator="out"/>
<feColorMatrix type="matrix" values="0 0 0 0 0 0 0 0 0 0 0 0 0 0 0 0 0 0 0.25 0"/>
<feBlend mode="normal" in2="BackgroundImageFix" result="effect1_dropShadow_30_550"/>
<feBlend mode="normal" in="SourceGraphic" in2="effect1_dropShadow_30_550" result="shape"/>
</filter>
<filter id="filter3_d_30_550" x="706.65" y="141.028" width="106.074" height="154.738" filterUnits="userSpaceOnUse" color-interpolation-filters="sRGB">
<feFlood flood-opacity="0" result="BackgroundImageFix"/>
<feColorMatrix in="SourceAlpha" type="matrix" values="0 0 0 0 0 0 0 0 0 0 0 0 0 0 0 0 0 0 127 0" result="hardAlpha"/>
<feOffset dy="4"/>
<feGaussianBlur stdDeviation="2"/>
<feComposite in2="hardAlpha" operator="out"/>
<feColorMatrix type="matrix" values="0 0 0 0 0 0 0 0 0 0 0 0 0 0 0 0 0 0 0.25 0"/>
<feBlend mode="normal" in2="BackgroundImageFix" result="effect1_dropShadow_30_550"/>
<feBlend mode="normal" in="SourceGraphic" in2="effect1_dropShadow_30_550" result="shape"/>
</filter>
<filter id="filter4_d_30_550" x="690.372" y="57.8619" width="260.931" height="326.369" filterUnits="userSpaceOnUse" color-interpolation-filters="sRGB">
<feFlood flood-opacity="0" result="BackgroundImageFix"/>
<feColorMatrix in="SourceAlpha" type="matrix" values="0 0 0 0 0 0 0 0 0 0 0 0 0 0 0 0 0 0 127 0" result="hardAlpha"/>
<feOffset dy="4"/>
<feGaussianBlur stdDeviation="2"/>
<feComposite in2="hardAlpha" operator="out"/>
<feColorMatrix type="matrix" values="0 0 0 0 0 0 0 0 0 0 0 0 0 0 0 0 0 0 0.25 0"/>
<feBlend mode="normal" in2="BackgroundImageFix" result="effect1_dropShadow_30_550"/>
<feBlend mode="normal" in="SourceGraphic" in2="effect1_dropShadow_30_550" result="shape"/>
</filter>
<filter id="filter5_d_30_550" x="801.829" y="165.829" width="69.5625" height="105.078" filterUnits="userSpaceOnUse" color-interpolation-filters="sRGB">
<feFlood flood-opacity="0" result="BackgroundImageFix"/>
<feColorMatrix in="SourceAlpha" type="matrix" values="0 0 0 0 0 0 0 0 0 0 0 0 0 0 0 0 0 0 127 0" result="hardAlpha"/>
<feOffset dy="4"/>
<feGaussianBlur stdDeviation="2"/>
<feComposite in2="hardAlpha" operator="out"/>
<feColorMatrix type="matrix" values="0 0 0 0 0 0 0 0 0 0 0 0 0 0 0 0 0 0 0.25 0"/>
<feBlend mode="normal" in2="BackgroundImageFix" result="effect1_dropShadow_30_550"/>
<feBlend mode="normal" in="SourceGraphic" in2="effect1_dropShadow_30_550" result="shape"/>
</filter>
<radialGradient id="paint0_radial_30_550" cx="0" cy="0" r="1" gradientUnits="userSpaceOnUse" gradientTransform="translate(645.605 38.7453) rotate(41.2666) scale(653.09 3832.32)">
<stop offset="0.33125" stop-color="#5625E2"/>
<stop offset="1" stop-color="#EB00FF" stop-opacity="0"/>
</radialGradient>
</defs>
</svg>
